<?xml version="1.0" encoding="utf-8"?>
<!-- Generator: Adobe Illustrator 24.1.2, SVG Export Plug-In . SVG Version: 6.00 Build 0)  -->
<svg version="1.1" id="Layer_1" xmlns="http://www.w3.org/2000/svg" xmlns:xlink="http://www.w3.org/1999/xlink" x="0px" y="0px"
	 viewBox="0 0 7 357" style="enable-background:new 0 0 357 357;" xml:space="preserve">
<style type="text/css">
	.st0{fill:#8A181B;}
</style>
<g transform="translate(0.000000,357.000000) scale(0.100000,-0.100000)">
	<path class="st0" d="M-1201.1,3754c-210.8-58.8-194.6,84.4-194.6-1852.9c0-1964.1-19.5-1812.3,220.6-1861.5
		c230.3-47,496.3-27.8,668.2,49.2c68.1,28.9,68.1,29.9,77.9,1799.5c6.5,1669.1,3.2,1772.8-48.7,1808
		C-610.8,3781.8-990.3,3811.7-1201.1,3754z"/>
	<path class="st0" d="M359.1,3603.4c-61.6-10.7-142.7-33.1-178.4-49.2c-68.1-29.9-68.1-31-77.8-1640.3
		C96.4,396.5,99.6,301.4,151.5,266.2c175.2-114.3,687.7-114.3,859.6,0c55.1,35.3,58.4,135.7,58.4,1632.8
		c0,1764.2,16.2,1641.3-204.4,1692.6C732.2,3622.6,501.8,3627.9,359.1,3603.4z"/>
	<path class="st0" d="M3340.1,3602.3c-71.4-12.8-142.7-37.4-184.9-66.3l-74.6-47V1895.8c0-1529.1,3.2-1594.3,61.6-1629.6
		c175.2-111.1,648.8-115.4,846.6-8.5c64.9,35.3,64.9,57.7,64.9,1643.5s0,1608.2-64.9,1643.5
		C3855.9,3617.2,3570.4,3641.8,3340.1,3602.3z"/>
	<path class="st0" d="M-2628.4,3110.7c-61.6-9.6-146-34.2-184.9-54.5l-74.6-36.3V1902.2c0-1096.4,0-1118.8,64.9-1153
		c197.9-105.8,658.5-101.5,833.6,8.5l74.6,47l-6.5,1108.1c-9.7,1106-9.7,1109.2-77.8,1139.1
		C-2164.5,3125.7-2404.6,3148.1-2628.4,3110.7z"/>
	<path class="st0" d="M1925.8,2957.9c-133-12.8-295.2-73.7-321.1-118.6c-9.7-19.2-13-454.1-9.7-967.1
		c9.7-921.1,9.7-931.8,77.8-960.7c168.7-74.8,379.5-95.1,603.3-58.8c77.8,12.8,168.7,36.3,204.4,52.4
		c64.9,27.8,64.9,48.1,74.6,986.3l6.5,957.4l-71.4,35.3C2347.5,2952.6,2139.9,2979.3,1925.8,2957.9z"/>
	<path class="st0" d="M4867.9,2946.2c-81.1-13.9-175.2-38.5-210.8-54.5c-68.1-29.9-68.1-40.6-77.9-964.9
		c-6.5-620.8,3.2-948.9,26-976.7c42.2-52.4,214.1-102.6,386-112.2c175.2-9.6,392.5,22.4,483.3,71.6l71.4,37.4v954.2
		c0,888-3.2,955.3-55.1,985.2c-71.4,38.5-214.1,68.4-366.5,78C5039.9,2968.6,4975,2964.3,4867.9,2946.2z"/>
	<path class="st0" d="M-4165.9,2447.1c-48.7-10.7-120-34.2-152.5-50.2c-58.4-28.9-61.6-58.8-61.6-494.8c0-452,3.2-463.8,68.1-500.1
		c194.6-102.6,661.7-93,833.6,18.2c71.4,47,71.4,52.4,71.4,480.9c0,403.9-6.5,436-64.9,477.7c-35.7,26.7-107,54.5-168.7,67.3
		C-3779.9,2473.9-4036.2,2474.9-4165.9,2447.1z"/>
	<path class="st0" d="M6298.4,2446.1c-61.6-12.8-133-40.6-168.7-67.3c-58.4-41.7-64.9-73.7-64.9-477.7c0-428.5,0-433.8,74.6-480.9
		c168.7-111.1,635.8-120.7,830.4-18.2c64.9,36.3,68.1,48.1,68.1,500.1c0,436-3.2,465.9-61.6,494.8
		C6833.6,2468.5,6522.2,2491,6298.4,2446.1z"/>
</g>
</svg>
