<?xml version="1.0" encoding="utf-8"?>
<!-- Generator: Adobe Illustrator 24.1.2, SVG Export Plug-In . SVG Version: 6.00 Build 0)  -->
<svg version="1.1" id="Layer_1" xmlns="http://www.w3.org/2000/svg" xmlns:xlink="http://www.w3.org/1999/xlink" x="0px" y="0px"
	 viewBox="0 0 500 500" style="enable-background:new 0 0 500 500;" xml:space="preserve">
<style type="text/css">
	.st0{fill:#FF5757;}
</style>
<g transform="translate(0.000000,500.000000) scale(0.100000,-0.100000)">
	<path class="st0" d="M-725.2,2567.7V0H-471h254.2v2567.7v2567.7H-471h-254.2V2567.7z"/>
	<path class="st0" d="M13764,2092.2V0h254.2h254.2v2092.2v2092.2h-254.2H13764V2092.2z"/>
	<path class="st0" d="M-1657.2,1743.5V0h211.8h211.8v1743.5V3487h-211.8h-211.8V1743.5z"/>
	<path class="st0" d="M291.6,1743.5V0h211.8h211.8v1743.5V3487H503.4H291.6V1743.5z"/>
	<path class="st0" d="M8934.2,1743.5V0h254.2h254.2v1743.5V3487h-254.2h-254.2V1743.5z"/>
	<path class="st0" d="M12831.9,1680.1V0h211.8h211.8v1680.1v1680.1h-211.8h-211.8V1680.1z"/>
	<path class="st0" d="M3172.5,1521.6V0h211.8h211.8v1521.6v1521.6h-211.8h-211.8V1521.6z"/>
	<path class="st0" d="M8002.2,1489.9V0H8214h211.8v1489.9v1489.9H8214h-211.8V1489.9z"/>
	<path class="st0" d="M-2674,1426.5V0h254.2h254.2v1426.5V2853h-254.2H-2674V1426.5z"/>
	<path class="st0" d="M5121.3,1426.5V0h211.8H5545v1426.5V2853h-211.8h-211.8V1426.5z"/>
	<path class="st0" d="M9951,1426.5V0h211.8h211.8v1426.5V2853h-211.8H9951V1426.5z"/>
	<path class="st0" d="M2155.7,1141.2V0h254.2h254.2v1141.2v1141.2h-254.2h-254.2V1141.2z"/>
	<path class="st0" d="M4104.5,1141.2V0h254.2h254.2v1141.2v1141.2h-254.2h-254.2V1141.2z"/>
	<path class="st0" d="M10883.1,1141.2V0h211.8h211.8v1141.2v1141.2h-211.8h-211.8V1141.2z"/>
	<path class="st0" d="M6985.4,1077.8V0h254.2h254.2v1077.8v1077.8h-254.2h-254.2V1077.8z"/>
	<path class="st0" d="M11815.1,855.9V0h254.2h254.2v855.9v855.9h-254.2h-254.2V855.9z"/>
	<path class="st0" d="M1223.7,792.5V0h211.8h211.8v792.5V1585h-211.8h-211.8V792.5z"/>
	<path class="st0" d="M6053.4,697.4V0h211.8H6477v697.4v697.4h-211.8h-211.8V697.4z"/>
</g>
</svg>
