<?xml version="1.0" encoding="utf-8"?>
<!-- Generator: Adobe Illustrator 24.1.2, SVG Export Plug-In . SVG Version: 6.00 Build 0)  -->
<svg version="1.1" id="Layer_1" xmlns="http://www.w3.org/2000/svg" xmlns:xlink="http://www.w3.org/1999/xlink" x="0px" y="0px"
	 viewBox="0 0 500 500" style="enable-background:new 0 0 500 500;" xml:space="preserve">
<style type="text/css">
	.st0{fill:#FF5757;}
</style>
<g transform="translate(0.000000,500.000000) scale(0.100000,-0.100000)">
	<path class="st0" d="M258.4,1465V0h130.2h130.2v1465v1465H388.6H258.4V1465z"/>
	<path class="st0" d="M7681.2,1193.7V0h130.2h130.2v1193.7v1193.7h-130.2h-130.2V1193.7z"/>
	<path class="st0" d="M-219.1,994.8V0h108.5H-2.1v994.8v994.8h-108.5h-108.5V994.8z"/>
	<path class="st0" d="M779.3,994.8V0h108.5h108.5v994.8v994.8H887.8H779.3V994.8z"/>
	<path class="st0" d="M5206.9,994.8V0h130.2h130.2v994.8v994.8h-130.2h-130.2V994.8z"/>
	<path class="st0" d="M7203.7,958.6V0h108.5h108.5v958.6v958.6h-108.5h-108.5V958.6z"/>
	<path class="st0" d="M2255.2,868.1V0h108.5h108.5v868.1v868.1h-108.5h-108.5V868.1z"/>
	<path class="st0" d="M4729.4,850.1V0h108.5h108.5v850.1v850.1h-108.5h-108.5V850.1z"/>
	<path class="st0" d="M-740,813.9V0h130.2h130.2v813.9v813.9h-130.2H-740V813.9z"/>
	<path class="st0" d="M3253.5,813.9V0H3362h108.6v813.9v813.9h-108.5h-108.5L3253.5,813.9L3253.5,813.9z"/>
	<path class="st0" d="M5727.8,813.9V0h108.5h108.5v813.9v813.9h-108.5h-108.5V813.9z"/>
	<path class="st0" d="M1734.3,651.1V0h130.2h130.2v651.1v651.1h-130.2h-130.2V651.1z"/>
	<path class="st0" d="M2732.6,651.1V0h130.2h130.2v651.1v651.1h-130.2h-130.2V651.1z"/>
	<path class="st0" d="M6205.3,651.1V0h108.5h108.5v651.1v651.1h-108.5h-108.5V651.1z"/>
	<path class="st0" d="M4208.5,614.9V0h130.2H4469v614.9v614.9h-130.2h-130.2V614.9z"/>
	<path class="st0" d="M6682.8,488.3V0H6813h130.2v488.3v488.3H6813h-130.2V488.3z"/>
	<path class="st0" d="M1256.8,452.2V0h108.5h108.5v452.2v452.2h-108.5h-108.5V452.2z"/>
	<path class="st0" d="M3731.1,397.9V0h108.5h108.5v397.9v397.9h-108.5h-108.5L3731.1,397.9L3731.1,397.9z"/>
</g>
</svg>
